<svg width="101" height="101" viewBox="0 0 101 101" fill="none" xmlns="http://www.w3.org/2000/svg">
<g opacity="0.7" filter="url(#filter0_d_3_574)">
<circle cx="50.4705" cy="45.5871" r="34.1835" transform="rotate(-17.8082 50.4705 45.5871)" fill="#470137"/>
</g>
<path d="M88.8496 35.2692C94.6234 53.2437 84.7328 72.4954 66.7583 78.2692C48.7839 84.043 29.5321 74.1524 23.7583 56.178C17.9845 38.2035 27.8751 18.9517 45.8496 13.178C63.824 7.40416 83.0758 17.2948 88.8496 35.2692Z" fill="#470137"/>
<path d="M53.5457 35.3302L51.2998 46.5758L60.8049 54.1942C60.8692 54.2552 60.9148 54.323 60.9232 54.4042C60.9316 54.4855 60.8368 54.4566 60.7318 54.5158L56.4663 56.0619C56.1683 56.1699 55.9567 56.2256 55.7588 56.0866C55.084 55.446 54.3974 54.8309 53.7227 54.1903C53.0547 53.5684 52.3427 52.9414 51.6054 52.3025C50.868 51.6636 50.1307 51.0247 49.3866 50.3672L49.3493 50.3807C49.2485 51.3234 49.1104 52.2796 48.9723 53.2359C48.8342 54.1921 48.6961 55.1483 48.5699 56.0792C48.425 57.0168 48.287 57.973 48.1354 58.892C48.1284 59.1053 47.9861 59.1779 47.7812 59.2522L43.6834 60.7375C43.6089 60.7645 43.5665 60.822 43.5327 60.7289C43.4871 60.6612 43.4787 60.5799 43.4957 60.5105L45.8452 48.9112L36.7378 41.4015C36.6549 41.3473 36.6093 41.2795 36.633 41.2288C36.65 41.1594 36.7178 41.1138 36.7923 41.0868L41.0205 39.5541C41.1137 39.5204 41.2135 39.5052 41.2948 39.4969C41.3828 39.5071 41.4589 39.5427 41.5418 39.597C42.1861 40.2696 42.8862 40.9221 43.6049 41.5677C44.3422 42.2066 45.0542 42.8336 45.8035 43.4472C46.5341 44.0674 47.2274 44.7012 47.9089 45.3604L47.9462 45.3469C48.0402 44.3855 48.1597 43.436 48.2859 42.5052C48.4121 41.5743 48.557 40.6367 48.7018 39.6991C48.8467 38.7615 48.9661 37.812 49.0991 36.8998C49.0907 36.8186 49.101 36.7306 49.1433 36.673C49.2043 36.6088 49.2721 36.5632 49.372 36.548L53.3022 35.1234C53.3886 35.071 53.5019 35.0932 53.5543 35.1795C53.5797 35.1914 53.5695 35.2794 53.5457 35.3302Z" fill="#FF61F6"/>
<path d="M69.2741 51.862C67.9025 52.3803 66.4228 52.6005 64.9655 52.4754C63.5963 52.3606 62.3036 51.8176 61.2347 50.9617C60.1337 50.0753 59.2853 48.7812 58.6709 47.0862C58.1526 45.7146 58.0137 44.2266 58.2707 42.7846C58.5397 41.3174 59.1996 39.9402 60.1859 38.824C61.2264 37.625 62.6627 36.7039 64.5068 36.0355C64.5999 36.0017 64.7303 35.9545 64.9047 35.9123C65.0791 35.8702 65.2653 35.8027 65.4956 35.7403L63.3621 29.8543C63.3148 29.7239 63.3437 29.6292 63.4741 29.5819L67.2553 28.2113C67.3417 28.1589 67.4432 28.2064 67.4888 28.2742C67.4956 28.2928 67.5023 28.3114 67.5023 28.3114L73.9299 46.0439C74.0514 46.3792 74.2051 46.745 74.3722 47.148C74.5513 47.5257 74.7049 47.8914 74.8383 48.2013C74.8856 48.3317 74.8702 48.4637 74.7601 48.5669C73.9401 49.3278 73.0236 49.9971 72.048 50.5615C71.1589 51.0735 70.2427 51.5109 69.2741 51.862ZM69.7492 47.475L66.7784 39.2793C66.5973 39.3029 66.4161 39.3264 66.2418 39.3685C66.0301 39.4241 65.8185 39.4798 65.6136 39.5541C64.8871 39.8174 64.2147 40.2297 63.6843 40.8013C63.1658 41.3475 62.7944 42.009 62.6007 42.7535C62.4069 43.4981 62.4924 44.3733 62.8435 45.3419C63.0611 46.0006 63.4092 46.612 63.8555 47.1457C64.2241 47.5811 64.6655 47.9268 65.1731 48.1643C65.6485 48.3713 66.1715 48.4768 66.7098 48.4503C67.2735 48.4356 67.822 48.3211 68.3435 48.132C68.6229 48.0308 68.877 47.9176 69.1124 47.8112C69.3613 47.7421 69.5526 47.6306 69.7492 47.475Z" fill="#FF61F6"/>
<defs>
<filter id="filter0_d_3_574" x="-2.67029e-05" y="-0.0002141" width="100.941" height="100.941" filterUnits="userSpaceOnUse" color-interpolation-filters="sRGB">
<feFlood flood-opacity="0" result="BackgroundImageFix"/>
<feColorMatrix in="SourceAlpha" type="matrix" values="0 0 0 0 0 0 0 0 0 0 0 0 0 0 0 0 0 0 127 0" result="hardAlpha"/>
<feOffset dy="4.88336"/>
<feGaussianBlur stdDeviation="8.13893"/>
<feComposite in2="hardAlpha" operator="out"/>
<feColorMatrix type="matrix" values="0 0 0 0 0.168627 0 0 0 0 0.172549 0 0 0 0 0.203922 0 0 0 0.2 0"/>
<feBlend mode="normal" in2="BackgroundImageFix" result="effect1_dropShadow_3_574"/>
<feBlend mode="normal" in="SourceGraphic" in2="effect1_dropShadow_3_574" result="shape"/>
</filter>
</defs>
</svg>
